# This file uses centimeters as units for non-parametric coordinates.

mtllib Underworld.mtl
g default
v -1578.514303 -34.898773 1578.514303
v 1578.514303 -34.898773 1578.514303
v -1578.514303 3122.129833 1578.514303
v 1578.514303 3122.129833 1578.514303
v -1578.514303 3122.129833 -1578.514303
v 1578.514303 3122.129833 -1578.514303
v -1578.514303 -34.898773 -1578.514303
v 1578.514303 -34.898773 -1578.514303
vt 0.375000 0.000000
vt 0.625000 0.000000
vt 0.375000 0.250000
vt 0.625000 0.250000
vt 0.375000 0.500000
vt 0.625000 0.500000
vt 0.375000 0.750000
vt 0.625000 0.750000
vt 0.375000 1.000000
vt 0.625000 1.000000
vt 0.875000 0.000000
vt 0.875000 0.250000
vt 0.125000 0.000000
vt 0.125000 0.250000
vn 0.000000 0.000000 -1.000000
vn 0.000000 0.000000 -1.000000
vn 0.000000 0.000000 -1.000000
vn 0.000000 0.000000 -1.000000
vn 0.000000 0.000000 1.000000
vn 0.000000 0.000000 1.000000
vn 0.000000 0.000000 1.000000
vn 0.000000 0.000000 1.000000
vn 0.000000 1.000000 0.000000
vn 0.000000 1.000000 0.000000
vn 0.000000 1.000000 0.000000
vn 0.000000 1.000000 0.000000
vn -1.000000 0.000000 0.000000
vn -1.000000 0.000000 0.000000
vn -1.000000 0.000000 0.000000
vn -1.000000 0.000000 0.000000
vn 1.000000 0.000000 0.000000
vn 1.000000 0.000000 0.000000
vn 1.000000 0.000000 0.000000
vn 1.000000 0.000000 0.000000
s off
g pCube1
usemtl initialShadingGroup
f 1/1/1 3/3/2 4/4/3 2/2/4
f 5/5/5 7/7/6 8/8/7 6/6/8
f 7/7/9 1/9/10 2/10/11 8/8/12
f 2/2/13 4/4/14 6/12/15 8/11/16
f 7/13/17 5/14/18 3/3/19 1/1/20
g default
v -20.485165 -35.612186 18.495411
v 16.505657 -35.612186 18.495411
v -20.485165 1.378636 18.495411
v 16.505657 1.378636 18.495411
v -20.485165 1.378636 -18.495411
v 16.505657 1.378636 -18.495411
v -20.485165 -35.612186 -18.495411
v 16.505657 -35.612186 -18.495411
vt 0.375000 0.000000
vt 0.625000 0.000000
vt 0.375000 0.250000
vt 0.625000 0.250000
vt 0.375000 0.500000
vt 0.625000 0.500000
vt 0.375000 0.750000
vt 0.625000 0.750000
vt 0.375000 1.000000
vt 0.625000 1.000000
vt 0.875000 0.000000
vt 0.875000 0.250000
vt 0.125000 0.000000
vt 0.125000 0.250000
vn 0.000000 0.000000 1.000000
vn 0.000000 0.000000 1.000000
vn 0.000000 0.000000 1.000000
vn 0.000000 0.000000 1.000000
vn 0.000000 1.000000 0.000000
vn 0.000000 1.000000 0.000000
vn 0.000000 1.000000 0.000000
vn 0.000000 1.000000 0.000000
vn 0.000000 0.000000 -1.000000
vn 0.000000 0.000000 -1.000000
vn 0.000000 0.000000 -1.000000
vn 0.000000 0.000000 -1.000000
vn 0.000000 -1.000000 0.000000
vn 0.000000 -1.000000 0.000000
vn 0.000000 -1.000000 0.000000
vn 0.000000 -1.000000 0.000000
vn 1.000000 0.000000 0.000000
vn 1.000000 0.000000 0.000000
vn 1.000000 0.000000 0.000000
vn 1.000000 0.000000 0.000000
vn -1.000000 0.000000 0.000000
vn -1.000000 0.000000 0.000000
vn -1.000000 0.000000 0.000000
vn -1.000000 0.000000 0.000000
s off
g pCube2
usemtl initialShadingGroup
f 9/15/21 10/16/22 12/18/23 11/17/24
f 11/17/25 12/18/26 14/20/27 13/19/28
f 13/19/29 14/20/30 16/22/31 15/21/32
f 15/21/33 16/22/34 10/24/35 9/23/36
f 10/16/37 16/25/38 14/26/39 12/18/40
f 15/27/41 9/15/42 11/17/43 13/28/44
g default
v -66.436718 -35.612186 18.495411
v -29.445896 -35.612186 18.495411
v -66.436718 1.378636 18.495411
v -29.445896 1.378636 18.495411
v -66.436718 1.378636 -18.495411
v -29.445896 1.378636 -18.495411
v -66.436718 -35.612186 -18.495411
v -29.445896 -35.612186 -18.495411
vt 0.375000 0.000000
vt 0.625000 0.000000
vt 0.375000 0.250000
vt 0.625000 0.250000
vt 0.375000 0.500000
vt 0.625000 0.500000
vt 0.375000 0.750000
vt 0.625000 0.750000
vt 0.375000 1.000000
vt 0.625000 1.000000
vt 0.875000 0.000000
vt 0.875000 0.250000
vt 0.125000 0.000000
vt 0.125000 0.250000
vn 0.000000 0.000000 1.000000
vn 0.000000 0.000000 1.000000
vn 0.000000 0.000000 1.000000
vn 0.000000 0.000000 1.000000
vn 0.000000 1.000000 0.000000
vn 0.000000 1.000000 0.000000
vn 0.000000 1.000000 0.000000
vn 0.000000 1.000000 0.000000
vn 0.000000 0.000000 -1.000000
vn 0.000000 0.000000 -1.000000
vn 0.000000 0.000000 -1.000000
vn 0.000000 0.000000 -1.000000
vn 0.000000 -1.000000 0.000000
vn 0.000000 -1.000000 0.000000
vn 0.000000 -1.000000 0.000000
vn 0.000000 -1.000000 0.000000
vn 1.000000 0.000000 0.000000
vn 1.000000 0.000000 0.000000
vn 1.000000 0.000000 0.000000
vn 1.000000 0.000000 0.000000
vn -1.000000 0.000000 0.000000
vn -1.000000 0.000000 0.000000
vn -1.000000 0.000000 0.000000
vn -1.000000 0.000000 0.000000
s off
g pCube3
usemtl initialShadingGroup
f 17/29/45 18/30/46 20/32/47 19/31/48
f 19/31/49 20/32/50 22/34/51 21/33/52
f 21/33/53 22/34/54 24/36/55 23/35/56
f 23/35/57 24/36/58 18/38/59 17/37/60
f 18/30/61 24/39/62 22/40/63 20/32/64
f 23/41/65 17/29/66 19/31/67 21/42/68
g default
v -66.436718 -35.612186 65.400797
v -29.445896 -35.612186 65.400797
v -66.436718 1.378636 65.400797
v -29.445896 1.378636 65.400797
v -66.436718 1.378636 28.409974
v -29.445896 1.378636 28.409974
v -66.436718 -35.612186 28.409974
v -29.445896 -35.612186 28.409974
vt 0.375000 0.000000
vt 0.625000 0.000000
vt 0.375000 0.250000
vt 0.625000 0.250000
vt 0.375000 0.500000
vt 0.625000 0.500000
vt 0.375000 0.750000
vt 0.625000 0.750000
vt 0.375000 1.000000
vt 0.625000 1.000000
vt 0.875000 0.000000
vt 0.875000 0.250000
vt 0.125000 0.000000
vt 0.125000 0.250000
vn 0.000000 0.000000 1.000000
vn 0.000000 0.000000 1.000000
vn 0.000000 0.000000 1.000000
vn 0.000000 0.000000 1.000000
vn 0.000000 1.000000 0.000000
vn 0.000000 1.000000 0.000000
vn 0.000000 1.000000 0.000000
vn 0.000000 1.000000 0.000000
vn 0.000000 0.000000 -1.000000
vn 0.000000 0.000000 -1.000000
vn 0.000000 0.000000 -1.000000
vn 0.000000 0.000000 -1.000000
vn 0.000000 -1.000000 0.000000
vn 0.000000 -1.000000 0.000000
vn 0.000000 -1.000000 0.000000
vn 0.000000 -1.000000 0.000000
vn 1.000000 0.000000 0.000000
vn 1.000000 0.000000 0.000000
vn 1.000000 0.000000 0.000000
vn 1.000000 0.000000 0.000000
vn -1.000000 0.000000 0.000000
vn -1.000000 0.000000 0.000000
vn -1.000000 0.000000 0.000000
vn -1.000000 0.000000 0.000000
s off
g pCube4
usemtl initialShadingGroup
f 25/43/69 26/44/70 28/46/71 27/45/72
f 27/45/73 28/46/74 30/48/75 29/47/76
f 29/47/77 30/48/78 32/50/79 31/49/80
f 31/49/81 32/50/82 26/52/83 25/51/84
f 26/44/85 32/53/86 30/54/87 28/46/88
f 31/55/89 25/43/90 27/45/91 29/56/92
g default
v -48.191133 -34.927917 66.565816
v -47.691481 -34.927917 66.565816
v -48.191133 -33.983139 66.565816
v -47.691481 -33.983139 66.565816
v -48.191133 -33.983139 65.985764
v -47.691481 -33.983139 65.985764
v -48.191133 -34.927917 65.985764
v -47.691481 -34.927917 65.985764
vt 0.375000 0.000000
vt 0.625000 0.000000
vt 0.375000 0.250000
vt 0.625000 0.250000
vt 0.375000 0.500000
vt 0.625000 0.500000
vt 0.375000 0.750000
vt 0.625000 0.750000
vt 0.375000 1.000000
vt 0.625000 1.000000
vt 0.875000 0.000000
vt 0.875000 0.250000
vt 0.125000 0.000000
vt 0.125000 0.250000
vn 0.000000 0.000000 1.000000
vn 0.000000 0.000000 1.000000
vn 0.000000 0.000000 1.000000
vn 0.000000 0.000000 1.000000
vn 0.000000 1.000000 0.000000
vn 0.000000 1.000000 0.000000
vn 0.000000 1.000000 0.000000
vn 0.000000 1.000000 0.000000
vn 0.000000 0.000000 -1.000000
vn 0.000000 0.000000 -1.000000
vn 0.000000 0.000000 -1.000000
vn 0.000000 0.000000 -1.000000
vn 0.000000 -1.000000 0.000000
vn 0.000000 -1.000000 0.000000
vn 0.000000 -1.000000 0.000000
vn 0.000000 -1.000000 0.000000
vn 1.000000 0.000000 0.000000
vn 1.000000 0.000000 0.000000
vn 1.000000 0.000000 0.000000
vn 1.000000 0.000000 0.000000
vn -1.000000 0.000000 0.000000
vn -1.000000 0.000000 0.000000
vn -1.000000 0.000000 0.000000
vn -1.000000 0.000000 0.000000
s off
g Friend
usemtl initialShadingGroup
f 33/57/93 34/58/94 36/60/95 35/59/96
f 35/59/97 36/60/98 38/62/99 37/61/100
f 37/61/101 38/62/102 40/64/103 39/63/104
f 39/63/105 40/64/106 34/66/107 33/65/108
f 34/58/109 40/67/110 38/68/111 36/60/112
f 39/69/113 33/57/114 35/59/115 37/70/116
g default
v -20.485165 -35.612186 74.952512
v 16.505657 -35.612186 74.952512
v -20.485165 1.378636 74.952512
v 16.505657 1.378636 74.952512
v -20.485165 1.378636 37.961690
v 16.505657 1.378636 37.961690
v -20.485165 -35.612186 37.961690
v 16.505657 -35.612186 37.961690
vt 0.375000 0.000000
vt 0.625000 0.000000
vt 0.375000 0.250000
vt 0.625000 0.250000
vt 0.375000 0.500000
vt 0.625000 0.500000
vt 0.375000 0.750000
vt 0.625000 0.750000
vt 0.375000 1.000000
vt 0.625000 1.000000
vt 0.875000 0.000000
vt 0.875000 0.250000
vt 0.125000 0.000000
vt 0.125000 0.250000
vn 0.000000 0.000000 1.000000
vn 0.000000 0.000000 1.000000
vn 0.000000 0.000000 1.000000
vn 0.000000 0.000000 1.000000
vn 0.000000 1.000000 0.000000
vn 0.000000 1.000000 0.000000
vn 0.000000 1.000000 0.000000
vn 0.000000 1.000000 0.000000
vn 0.000000 0.000000 -1.000000
vn 0.000000 0.000000 -1.000000
vn 0.000000 0.000000 -1.000000
vn 0.000000 0.000000 -1.000000
vn 0.000000 -1.000000 0.000000
vn 0.000000 -1.000000 0.000000
vn 0.000000 -1.000000 0.000000
vn 0.000000 -1.000000 0.000000
vn 1.000000 0.000000 0.000000
vn 1.000000 0.000000 0.000000
vn 1.000000 0.000000 0.000000
vn 1.000000 0.000000 0.000000
vn -1.000000 0.000000 0.000000
vn -1.000000 0.000000 0.000000
vn -1.000000 0.000000 0.000000
vn -1.000000 0.000000 0.000000
s off
g pCube6
usemtl initialShadingGroup
f 41/71/117 42/72/118 44/74/119 43/73/120
f 43/73/121 44/74/122 46/76/123 45/75/124
f 45/75/125 46/76/126 48/78/127 47/77/128
f 47/77/129 48/78/130 42/80/131 41/79/132
f 42/72/133 48/81/134 46/82/135 44/74/136
f 47/83/137 41/71/138 43/73/139 45/84/140
